<svg width="16" height="11" fill="none" xmlns="http://www.w3.org/2000/svg"><g clip-path="url(#clip0_19415_1259)"><path d="M15.667 1.675a1.857 1.857 0 00-.51-.847 2.034 2.034 0 00-.893-.495c-1.252-.33-6.268-.33-6.268-.33a51.083 51.083 0 00-6.26.314 2.107 2.107 0 00-.892.506c-.246.238-.425.53-.518.851A19.393 19.393 0 000 5.337C-.008 6.564.101 7.79.326 8.999c.091.32.27.611.516.846.248.236.556.406.894.496 1.27.329 6.26.329 6.26.329 2.094.024 4.188-.08 6.268-.313.335-.087.642-.257.892-.495.244-.23.42-.524.51-.847.23-1.207.342-2.434.334-3.663a17.72 17.72 0 00-.333-3.678zM6.402 7.619V3.055l4.173 2.282L6.402 7.62z" fill="#444"/></g><defs><clipPath id="clip0_19415_1259"><path fill="#444" d="M0 0h16v11H0z"/></clipPath></defs></svg>
